<?xml version="1.0" encoding="UTF-8" standalone="no"?>
<!-- Created with Inkscape (http://www.inkscape.org/) -->

<svg
   xmlns:dc="http://purl.org/dc/elements/1.1/"
   xmlns:cc="http://creativecommons.org/ns#"
   xmlns:rdf="http://www.w3.org/1999/02/22-rdf-syntax-ns#"
   xmlns:svg="http://www.w3.org/2000/svg"
   xmlns="http://www.w3.org/2000/svg"
   xmlns:sodipodi="http://sodipodi.sourceforge.net/DTD/sodipodi-0.dtd"
   xmlns:inkscape="http://www.inkscape.org/namespaces/inkscape"
   width="512"
   height="512"
   viewBox="0 0 512.00001 512.00001"
   id="svg2"
   version="1.1"
   inkscape:version="0.91 r13725"
   sodipodi:docname="logo.svg"
   inkscape:export-filename="/home/skylar/Documents/Projects/Assets/ManagePanel/logo_512png"
   inkscape:export-xdpi="90"
   inkscape:export-ydpi="90">
  <defs
     id="defs4" />
  <sodipodi:namedview
     id="base"
     pagecolor="#ffffff"
     bordercolor="#666666"
     borderopacity="1.0"
     inkscape:pageopacity="0.0"
     inkscape:pageshadow="2"
     inkscape:zoom="0.49497475"
     inkscape:cx="-135.9681"
     inkscape:cy="352.66131"
     inkscape:document-units="px"
     inkscape:current-layer="layer1"
     showgrid="false"
     units="px" />
  <metadata
     id="metadata7">
    <rdf:RDF>
      <cc:Work
         rdf:about="">
        <dc:format>image/svg+xml</dc:format>
        <dc:type
           rdf:resource="http://purl.org/dc/dcmitype/StillImage" />
        <dc:title></dc:title>
      </cc:Work>
    </rdf:RDF>
  </metadata>
  <g
     inkscape:label="Layer 1"
     inkscape:groupmode="layer"
     id="layer1"
     transform="translate(0,-540.36216)">
    <rect
       style="opacity:1;fill:#ffffff;fill-opacity:1;stroke:none;stroke-width:1;stroke-miterlimit:4;stroke-dasharray:none;stroke-opacity:1"
       id="rect4726"
       width="512"
       height="512"
       x="0"
       y="540.36218"
       rx="50"
       ry="50" />
    <path
       style="fill:#795548;fill-opacity:1;fill-rule:evenodd;stroke:none;stroke-width:1.56935394px;stroke-linecap:butt;stroke-linejoin:miter;stroke-opacity:1"
       d="m 330.76404,897.29692 -288.389695,86.32217 0,-374.51387 289.117245,91.11691 z"
       id="path4165"
       inkscape:connector-curvature="0"
       sodipodi:nodetypes="ccccc" />
    <path
       id="path3243"
       style="color:#000000;fill:#ff5722;fill-opacity:1;stroke:none;stroke-width:5.9841857"
       inkscape:connector-curvature="0"
       d="m 320.66338,681.56299 c -3.48807,0.23881 -6.87874,0.77896 -10.30589,1.17111 l -0.23213,0 -8.19729,44.73587 c -13.36223,3.04281 -25.93177,8.20689 -37.24131,15.22431 l -36.79583,-26.4668 c -9.94078,7.71753 -18.98665,16.71842 -26.93411,26.4668 l 25.52997,37.24131 c -7.75137,11.84586 -13.58083,25.37274 -16.86384,39.58226 -4e-4,0.0678 -4e-4,0.22271 0,0.23371 l -44.50221,7.02658 c -0.81344,6.64532 -1.17101,13.51314 -1.17101,20.37704 0,5.61611 0.15504,11.15711 0.7024,16.62952 l 44.50221,7.96341 c 3.16488,15.45403 9.17734,29.88652 17.56613,42.62858 l -26.46679,36.30449 c 7.57994,9.41012 16.33079,17.97777 25.76362,25.52997 l 37.47499,-25.76363 c 13.09735,8.35494 27.71808,14.21345 43.56539,17.09816 l 7.02636,44.26862 c 4.99332,0.454 10.11416,0.4684 15.22475,0.4684 7.21482,0 14.10688,-0.2736 21.07974,-1.1711 l 8.43226,-45.20542 c 15.04612,-3.74444 29.18118,-10.24039 41.4559,-18.97181 l 36.06865,26.23315 c 9.354,-7.95817 17.90767,-17.1056 25.29631,-26.93631 l -26.23313,-37.94447 c 7.10455,-12.26928 12.02645,-25.8073 14.52135,-40.28543 l 44.26856,-7.02658 c 0.38954,-4.61946 0.46507,-9.0996 0.46507,-13.81908 0,-8.2012 -0.95375,-16.24235 -2.10852,-24.12365 l -44.96952,-8.19772 c -3.52411,-13.01306 -9.30641,-25.15437 -16.62911,-36.07083 l 26.46679,-36.30449 c -8.20404,-10.03293 -17.56241,-19.30111 -27.87093,-27.16995 l -38.17813,26.23313 c -10.97277,-6.48961 -22.78064,-11.46873 -35.60132,-14.28748 l -7.02636,-44.50221 c -6.39527,-0.75235 -12.84361,-1.1711 -19.43978,-1.1711 -1.78315,0 -3.61778,-0.0524 -5.3877,0 -0.86246,0.0276 -1.71625,-0.0524 -2.57592,0 -0.23213,0.0153 -0.47214,-0.0153 -0.70466,0 z m 6.08999,113.83124 c 0.85617,-0.0465 1.71036,0 2.5768,0 27.72462,0 50.35679,22.63216 50.35679,50.35679 0,27.72462 -22.63217,50.12312 -50.35679,50.12312 -27.72463,0 -50.12313,-22.3985 -50.12313,-50.12312 0,-26.85768 21.02079,-49.01162 47.54633,-50.35679 z" />
  </g>
</svg>
